<svg width="153" height="36" viewBox="0 0 153 36" fill="none" xmlns="http://www.w3.org/2000/svg">
<path d="M39.02 32.0993H42.1318C42.8343 32.0993 43.3669 31.9108 43.7297 31.5338C44.0925 31.1569 44.2739 30.6617 44.2739 30.0483C44.2739 29.7001 44.1849 29.3838 44.0068 29.0995C43.832 28.8152 43.5731 28.6028 43.2301 28.4622C43.451 28.3344 43.6242 28.1539 43.7495 27.9207C43.8781 27.6843 43.9424 27.4096 43.9424 27.0965C43.9424 26.7866 43.8666 26.4863 43.7149 26.1956C43.5665 25.9049 43.3372 25.6669 43.0272 25.4816C42.7205 25.2931 42.3264 25.1989 41.8448 25.1989H39.02V32.0993ZM40.2271 27.9542V26.2771H41.83C42.1136 26.2771 42.3346 26.3569 42.4929 26.5167C42.6512 26.6764 42.7304 26.8761 42.7304 27.1157C42.7304 27.3904 42.643 27.5996 42.4682 27.7434C42.2967 27.884 42.084 27.9542 41.83 27.9542H40.2271ZM40.2271 31.0115V29.0324H42.018C42.3511 29.0324 42.61 29.1267 42.7947 29.3152C42.9794 29.5036 43.0717 29.7368 43.0717 30.0148C43.0717 30.3215 42.9679 30.5643 42.7601 30.7432C42.5556 30.9221 42.2967 31.0115 41.9834 31.0115H40.2271Z" fill="#111111"/>
<path d="M45.3609 32.0993H49.6995V31.0163H46.5532V25.1989H45.3609V32.0993Z" fill="#111111"/>
<path d="M53.3572 32.243C54.0696 32.243 54.6797 32.0929 55.1876 31.7926C55.6989 31.4891 56.0897 31.0674 56.3601 30.5275C56.6339 29.9876 56.7707 29.3615 56.7707 28.6491C56.7707 27.9335 56.6339 27.3073 56.3601 26.7706C56.0897 26.2307 55.6989 25.8106 55.1876 25.5103C54.6797 25.2069 54.0696 25.0551 53.3572 25.0551C52.6481 25.0551 52.038 25.2069 51.5267 25.5103C51.0188 25.8106 50.628 26.2307 50.3543 26.7706C50.0838 27.3073 49.9486 27.9335 49.9486 28.6491C49.9486 29.3615 50.0838 29.9876 50.3543 30.5275C50.628 31.0674 51.0188 31.4891 51.5267 31.7926C52.038 32.0929 52.6481 32.243 53.3572 32.243ZM53.3572 31.1553C52.6415 31.1457 52.1039 30.9141 51.7444 30.4604C51.3849 30.0068 51.2068 29.403 51.2101 28.6491C51.2134 28.1443 51.2942 27.7035 51.4525 27.3265C51.6109 26.9495 51.8483 26.6572 52.1649 26.4496C52.4816 26.2387 52.879 26.1365 53.3572 26.1429C54.0762 26.1525 54.6138 26.3841 54.97 26.8377C55.3295 27.2914 55.5092 27.8951 55.5092 28.6491C55.5092 29.1506 55.4284 29.5915 55.2668 29.9717C55.1085 30.3486 54.8694 30.6409 54.5495 30.8486C54.2328 31.0562 53.8354 31.1585 53.3572 31.1553Z" fill="#111111"/>
<path d="M60.7683 32.243C61.5862 32.243 62.2689 32.045 62.8164 31.6488C63.3672 31.2495 63.7531 30.7128 63.974 30.0387L62.7719 29.7177C62.6334 30.1649 62.3975 30.5163 62.0644 30.7719C61.7313 31.0275 61.2993 31.1553 60.7683 31.1553C60.0526 31.1553 59.5133 30.9268 59.1506 30.47C58.7911 30.01 58.6113 29.403 58.6113 28.6491C58.6146 27.8951 58.796 27.2898 59.1555 26.8329C59.515 26.3729 60.0526 26.1429 60.7683 26.1429C61.2993 26.1429 61.7313 26.2707 62.0644 26.5262C62.3975 26.7818 62.6334 27.1332 62.7719 27.5805L63.974 27.2594C63.7531 26.5821 63.3672 26.0454 62.8164 25.6493C62.2689 25.2532 61.5862 25.0551 60.7683 25.0551C60.0592 25.0551 59.449 25.2069 58.9378 25.5103C58.4299 25.8106 58.0391 26.2307 57.7654 26.7706C57.4949 27.3073 57.3597 27.9335 57.3597 28.6491C57.3597 29.3615 57.4949 29.9876 57.7654 30.5275C58.0391 31.0674 58.4299 31.4891 58.9378 31.7926C59.449 32.0929 60.0592 32.243 60.7683 32.243Z" fill="#111111"/>
<path d="M65.0602 32.0993H66.2525V28.8791L69.2554 32.0993H70.7693L67.4992 28.582L70.5615 25.1989H69.0971L66.2525 28.3999V25.1989H65.0602V32.0993Z" fill="#111111"/>
<path d="M74.228 32.243C75.046 32.243 75.7287 32.045 76.2762 31.6488C76.8269 31.2495 77.2128 30.7128 77.4338 30.0387L76.2316 29.7177C76.0931 30.1649 75.8573 30.5163 75.5242 30.7719C75.1911 31.0275 74.759 31.1553 74.228 31.1553C73.5123 31.1553 72.9731 30.9268 72.6103 30.47C72.2508 30.01 72.0711 29.403 72.0711 28.6491C72.0744 27.8951 72.2558 27.2898 72.6153 26.8329C72.9748 26.3729 73.5123 26.1429 74.228 26.1429C74.759 26.1429 75.1911 26.2707 75.5242 26.5262C75.8573 26.7818 76.0931 27.1332 76.2316 27.5805L77.4338 27.2594C77.2128 26.5821 76.8269 26.0454 76.2762 25.6493C75.7287 25.2532 75.046 25.0551 74.228 25.0551C73.5189 25.0551 72.9088 25.2069 72.3976 25.5103C71.8897 25.8106 71.4989 26.2307 71.2251 26.7706C70.9547 27.3073 70.8194 27.9335 70.8194 28.6491C70.8194 29.3615 70.9547 29.9876 71.2251 30.5275C71.4989 31.0674 71.8897 31.4891 72.3976 31.7926C72.9088 32.0929 73.5189 32.243 74.228 32.243Z" fill="#111111"/>
<path d="M78.52 32.0993H79.7123V29.1858H83.0862V32.0993H84.2735V25.1989H83.0862V28.1028H79.7123V25.1989H78.52V32.0993Z" fill="#111111"/>
<path d="M85.1658 32.0993H86.3927L86.8775 30.6042H89.6875L90.1773 32.0993H91.4042L89.1582 25.1989H87.4118L85.1658 32.0993ZM87.2288 29.526L88.2726 26.3154L89.3313 29.526H87.2288Z" fill="#111111"/>
<path d="M92.3976 32.0993H93.5898V25.1989H92.3976V32.0993Z" fill="#111111"/>
<path d="M95.0717 32.0993H96.2788V27.2354L99.5835 32.0993H100.791V25.1989H99.5835V30.0627L96.2788 25.1989H95.0717V32.0993Z" fill="#111111"/>
<path d="M104.154 32.0993H108.755V31.0163H105.347V29.066H108.162V27.983H105.347V26.2819H108.755V25.1989H104.154V32.0993Z" fill="#111111"/>
<path d="M109.349 32.0993H110.818L112.5 29.5931L114.177 32.0993H115.636L113.232 28.6107L115.577 25.1989H114.108L112.5 27.6284L110.877 25.1989H109.418L111.763 28.6107L109.349 32.0993Z" fill="#111111"/>
<path d="M116.426 32.0993H117.618V29.6889H119.369C119.435 29.6889 119.523 29.6857 119.631 29.6793C119.744 29.673 119.846 29.6634 119.938 29.6506C120.552 29.5579 121.007 29.3104 121.304 28.9078C121.604 28.5021 121.754 28.0149 121.754 27.4463C121.754 26.8745 121.605 26.3873 121.309 25.9848C121.015 25.579 120.558 25.3299 119.938 25.2372C119.846 25.2212 119.745 25.2117 119.636 25.2085C119.528 25.2021 119.439 25.1989 119.369 25.1989H116.426V32.0993ZM117.618 28.6107V26.2819H119.32C119.386 26.2819 119.46 26.285 119.542 26.2914C119.625 26.2978 119.701 26.309 119.77 26.325C119.968 26.3729 120.123 26.4592 120.235 26.5837C120.35 26.7051 120.431 26.8425 120.477 26.9959C120.527 27.1492 120.552 27.2993 120.552 27.4463C120.552 27.5932 120.527 27.7434 120.477 27.8967C120.431 28.0501 120.35 28.1875 120.235 28.3088C120.123 28.4302 119.968 28.5149 119.77 28.5628C119.701 28.582 119.625 28.5948 119.542 28.6012C119.46 28.6075 119.386 28.6107 119.32 28.6107H117.618Z" fill="#111111"/>
<path d="M122.844 32.0993H127.183V31.0163H124.036V25.1989H122.844V32.0993Z" fill="#111111"/>
<path d="M130.84 32.243C131.553 32.243 132.163 32.0929 132.671 31.7926C133.182 31.4891 133.573 31.0674 133.843 30.5275C134.117 29.9876 134.254 29.3615 134.254 28.6491C134.254 27.9335 134.117 27.3073 133.843 26.7706C133.573 26.2307 133.182 25.8106 132.671 25.5103C132.163 25.2069 131.553 25.0551 130.84 25.0551C130.131 25.0551 129.521 25.2069 129.01 25.5103C128.502 25.8106 128.111 26.2307 127.837 26.7706C127.567 27.3073 127.432 27.9335 127.432 28.6491C127.432 29.3615 127.567 29.9876 127.837 30.5275C128.111 31.0674 128.502 31.4891 129.01 31.7926C129.521 32.0929 130.131 32.243 130.84 32.243ZM130.84 31.1553C130.124 31.1457 129.587 30.9141 129.227 30.4604C128.868 30.0068 128.69 29.403 128.693 28.6491C128.696 28.1443 128.777 27.7035 128.936 27.3265C129.094 26.9495 129.331 26.6572 129.648 26.4496C129.965 26.2387 130.362 26.1365 130.84 26.1429C131.559 26.1525 132.097 26.3841 132.453 26.8377C132.812 27.2914 132.992 27.8951 132.992 28.6491C132.992 29.1506 132.911 29.5915 132.75 29.9717C132.591 30.3486 132.352 30.6409 132.032 30.8486C131.716 31.0562 131.318 31.1585 130.84 31.1553Z" fill="#111111"/>
<path d="M135.238 32.0993H136.431V29.6889H138.123L139.33 32.0993H140.68L139.364 29.4829C139.77 29.3072 140.072 29.0404 140.27 28.6826C140.468 28.3248 140.567 27.9127 140.567 27.4463C140.567 26.8745 140.418 26.3873 140.121 25.9848C139.828 25.579 139.371 25.3299 138.751 25.2372C138.659 25.2212 138.558 25.2117 138.449 25.2085C138.34 25.2021 138.251 25.1989 138.182 25.1989H135.238V32.0993ZM136.431 28.6107V26.2819H138.133C138.198 26.2819 138.273 26.285 138.355 26.2914C138.438 26.2978 138.513 26.309 138.583 26.325C138.781 26.3729 138.936 26.4592 139.048 26.5837C139.163 26.7051 139.244 26.8425 139.29 26.9959C139.34 27.1492 139.364 27.2993 139.364 27.4463C139.364 27.5932 139.34 27.7434 139.29 27.8967C139.244 28.0501 139.163 28.1875 139.048 28.3088C138.936 28.4302 138.781 28.5149 138.583 28.5628C138.513 28.582 138.438 28.5948 138.355 28.6012C138.273 28.6075 138.198 28.6107 138.133 28.6107H136.431Z" fill="#111111"/>
<path d="M141.77 32.0993H146.371V31.0163H142.962V29.066H145.777V27.983H142.962V26.2819H146.371V25.1989H141.77V32.0993Z" fill="#111111"/>
<path d="M147.558 32.0993H148.75V29.6889H150.442L151.649 32.0993H153L151.684 29.4829C152.09 29.3072 152.391 29.0404 152.589 28.6826C152.787 28.3248 152.886 27.9127 152.886 27.4463C152.886 26.8745 152.738 26.3873 152.441 25.9848C152.147 25.579 151.691 25.3299 151.07 25.2372C150.978 25.2212 150.878 25.2117 150.769 25.2085C150.66 25.2021 150.571 25.1989 150.502 25.1989H147.558V32.0993ZM148.75 28.6107V26.2819H150.452C150.518 26.2819 150.592 26.285 150.675 26.2914C150.757 26.2978 150.833 26.309 150.902 26.325C151.1 26.3729 151.255 26.4592 151.367 26.5837C151.483 26.7051 151.564 26.8425 151.61 26.9959C151.659 27.1492 151.684 27.2993 151.684 27.4463C151.684 27.5932 151.659 27.7434 151.61 27.8967C151.564 28.0501 151.483 28.1875 151.367 28.3088C151.255 28.4302 151.1 28.5149 150.902 28.5628C150.833 28.582 150.757 28.5948 150.675 28.6012C150.592 28.6075 150.518 28.6107 150.452 28.6107H148.75Z" fill="#111111"/>
<path d="M48.6312 17.7719C47.7686 17.7719 46.9061 17.7719 45.9819 17.7719C45.9819 13.3975 45.9819 9.08479 45.9819 4.71043C46.598 4.71043 47.2758 4.64882 47.8919 4.71043C48.2615 4.77204 48.508 5.08009 48.6928 5.32653C50.3563 7.4213 52.0198 9.51607 53.6833 11.6108C53.9913 12.0421 54.361 12.4118 54.7307 12.9047C54.7307 10.1322 54.7307 7.4213 54.7307 4.71043C55.6548 4.71043 56.5174 4.71043 57.3799 4.71043C57.3799 9.08479 57.3799 13.3975 57.3799 17.7719C56.7638 17.7719 56.0861 17.8335 55.47 17.7103C55.0387 17.6487 54.7923 17.3406 54.5458 17.0326C52.7591 14.8146 50.9724 12.535 49.1857 10.317C49.0009 10.0706 48.816 9.88573 48.5696 9.57768C48.6312 12.3502 48.6312 15.061 48.6312 17.7719Z" fill="#111111"/>
<path d="M96.0715 6.3124C95.7634 6.74368 95.517 7.23656 95.1473 7.66784C94.8392 8.09911 94.408 8.16072 93.9151 7.79106C93.1141 7.29817 92.2516 6.99012 91.2658 6.99012C89.2943 6.99012 88.0004 7.97589 87.5692 9.88582C87.2611 11.118 87.3843 12.3503 87.9388 13.5209C88.9246 15.554 91.389 15.8621 93.0525 15.1843C93.1757 15.1227 93.2374 14.9995 93.2374 14.8763C93.2374 14.3218 93.2374 13.7673 93.2374 13.1512C92.8061 13.1512 92.3748 13.1512 92.0051 13.1512C91.5123 13.1512 91.3274 12.9664 91.3274 12.4735C91.3274 11.9806 91.3274 11.4877 91.3274 10.9332C92.1284 10.9332 92.8677 10.9332 93.6686 10.9332C94.408 10.9332 95.2089 10.9332 95.8866 10.9332C96.0098 11.118 95.9482 11.3029 95.9482 11.4261C95.9482 12.9664 95.9482 14.5066 95.9482 15.9853C95.9482 16.355 95.825 16.5398 95.5786 16.7246C94.0383 17.7104 92.3748 17.9568 90.5881 17.8336C89.7255 17.772 88.863 17.5872 88.0621 17.2175C85.228 15.9237 83.8109 13.2744 84.2422 10.1323C84.7351 6.74367 87.1995 4.5873 90.6497 4.52569C92.3748 4.46408 93.9767 4.77213 95.3937 5.81951C95.7018 5.94274 95.9482 6.06596 96.0715 6.3124Z" fill="#111111"/>
<path d="M82.0245 17.7719C79.1904 17.7719 76.418 17.7719 73.6455 17.7719C73.6455 13.3975 73.6455 9.08475 73.6455 4.71039C76.418 4.71039 79.1904 4.71039 82.0245 4.71039C82.0245 5.44972 82.0245 6.18905 82.0245 7.0516C80.2378 7.0516 78.5128 7.0516 76.726 7.0516C76.726 8.09898 76.726 9.02314 76.726 10.0705C78.0815 10.0705 79.4368 10.0705 80.7923 10.0705C80.7923 10.8715 80.7923 11.5492 80.7923 12.3501C79.4368 12.3501 78.0815 12.3501 76.726 12.3501C76.726 13.3975 76.726 14.3833 76.726 15.4307C78.5128 15.4307 80.2378 15.4307 82.0861 15.4307C82.0245 16.2316 82.0245 16.9709 82.0245 17.7719Z" fill="#111111"/>
<path d="M60.3374 7.05168C60.3374 6.25074 60.3374 5.4498 60.3374 4.64886C63.7876 4.64886 67.2378 4.64886 70.7496 4.64886C70.7496 5.4498 70.7496 6.18913 70.7496 6.99007C69.579 6.99007 68.3468 6.99007 67.1146 6.99007C67.1146 10.5635 67.1146 14.1369 67.1146 17.7103C66.0672 17.7103 65.0814 17.7103 64.034 17.7103C64.034 14.1369 64.034 10.6251 64.034 7.05168C62.7402 7.05168 61.5696 7.05168 60.3374 7.05168Z" fill="#111111"/>
<path d="M39.02 4.71039C40.0058 4.71039 40.9916 4.71039 42.0389 4.71039C42.0389 9.08475 42.0389 13.3975 42.0389 17.7719C41.0532 17.7719 40.0674 17.7719 39.02 17.7719C39.02 13.3975 39.02 9.08475 39.02 4.71039Z" fill="#111111"/>
<path d="M106.361 12.2885C106.977 12.6582 107.347 13.1511 107.655 13.7056C108.456 14.9994 109.256 16.3548 110.057 17.6487C109.996 17.8335 109.811 17.7719 109.749 17.7719C109.01 17.7719 108.271 17.7719 107.531 17.7719C106.915 17.7719 106.422 17.5254 106.114 16.9709C105.56 15.9236 104.944 14.9378 104.389 13.8904C103.835 12.9046 103.712 12.843 102.479 12.9662C102.479 14.5065 102.479 16.1084 102.479 17.7103C101.432 17.7103 100.446 17.7103 99.4604 17.7103C99.4604 13.3975 99.4604 9.02315 99.4604 4.64879C99.5221 4.64879 99.5837 4.58718 99.6453 4.58718C101.37 4.58718 103.095 4.52557 104.82 4.64879C105.375 4.7104 105.868 4.77201 106.361 4.95684C107.839 5.44973 108.764 6.37389 108.948 7.91416C109.133 9.51604 108.579 10.8715 107.223 11.7956C106.915 12.0421 106.669 12.1037 106.361 12.2885ZM104.574 10.6866C105.498 10.4402 105.991 9.70087 105.929 8.7151C105.929 7.79094 105.375 7.23644 104.451 7.05161C103.773 6.92839 103.157 6.99 102.479 6.99C102.479 8.28382 102.479 9.57765 102.479 10.8715C103.219 10.8715 103.896 10.8715 104.574 10.6866Z" fill="#111111"/>
<path d="M124.289 17.7719C123.55 17.7719 122.749 17.7719 122.01 17.7719C121.455 17.7719 121.147 17.4638 120.962 16.9709C120.716 16.2932 120.469 15.5539 120.223 14.8762C118.559 14.8762 116.896 14.8762 115.232 14.8762C114.986 15.4923 114.801 16.17 114.555 16.8477C114.308 17.587 114 17.7719 113.261 17.8335C112.583 17.8335 111.844 17.8335 111.104 17.8335C111.536 16.7861 111.905 15.8619 112.275 14.8762C113.507 11.6724 114.801 8.40703 116.033 5.20327C116.157 4.83361 116.341 4.71039 116.773 4.71039C117.512 4.772 118.19 4.71039 118.929 4.71039C119.237 4.71039 119.422 4.772 119.484 5.08005C121.085 9.20797 122.687 13.3359 124.289 17.4638C124.289 17.5254 124.351 17.587 124.289 17.7719ZM117.697 7.48287C117.081 9.26958 116.526 10.9947 115.91 12.7198C117.142 12.7198 118.251 12.7198 119.484 12.7198C118.929 10.9947 118.313 9.26958 117.697 7.48287Z" fill="#111111"/>
<path d="M32.7769 9.73449L17.0662 0.123221C16.943 0.0616107 16.7581 0 16.6349 0C16.4501 0 16.3268 0.0616107 16.142 0.123221L0.431275 9.73449C0.184832 9.85771 0 10.1658 0 10.4738V25.014C0 25.322 0.184832 25.6301 0.431275 25.8149L16.142 35.611C16.2652 35.7342 16.4501 35.7342 16.6349 35.7342C16.8197 35.7342 17.0046 35.6726 17.1278 35.611L32.8385 25.8149C33.085 25.6301 33.2698 25.322 33.2698 25.014V10.4738C33.2082 10.1658 33.085 9.85771 32.7769 9.73449ZM16.6349 19.1609L15.2179 18.2984L13.4311 19.4074L15.7107 20.8244V33.2082L2.71087 25.0756L16.6349 16.5733L18.0519 17.4358L19.8387 16.3268L17.5591 14.9714V2.58766L30.5589 10.5354L16.6349 19.1609ZM10.2274 17.3742L12.0141 16.2652L2.71087 10.5354L15.7107 2.58766V14.9714L1.84832 23.4121V12.1373L10.2274 17.3742ZM31.3599 23.4121L22.9808 18.2984L21.1941 19.4074L30.4973 25.0756L17.5591 33.1466V20.7628L31.4215 12.1373V23.4121H31.3599Z" fill="url(#paint0_linear)"/>
<defs>
<linearGradient id="paint0_linear" x1="4.82394" y1="29.5647" x2="28.1462" y2="6.24246" gradientUnits="userSpaceOnUse">
<stop stop-color="#0056F5"/>
<stop offset="1" stop-color="#33CCF4"/>
</linearGradient>
</defs>
</svg>
