<svg width="153" height="36" viewBox="0 0 153 36" fill="none" xmlns="http://www.w3.org/2000/svg">
<path d="M39.02 32.0993H42.1318C42.8343 32.0993 43.3669 31.9109 43.7297 31.5339C44.0925 31.1569 44.2739 30.6618 44.2739 30.0484C44.2739 29.7002 44.1849 29.3839 44.0068 29.0996C43.832 28.8153 43.5731 28.6028 43.2301 28.4622C43.451 28.3345 43.6242 28.154 43.7495 27.9208C43.8781 27.6844 43.9424 27.4096 43.9424 27.0965C43.9424 26.7867 43.8666 26.4864 43.7149 26.1957C43.5665 25.9049 43.3372 25.6669 43.0272 25.4817C42.7205 25.2932 42.3264 25.1989 41.8448 25.1989H39.02V32.0993ZM40.2271 27.9543V26.2771H41.83C42.1136 26.2771 42.3346 26.357 42.4929 26.5167C42.6512 26.6765 42.7304 26.8761 42.7304 27.1157C42.7304 27.3905 42.643 27.5997 42.4682 27.7435C42.2967 27.884 42.084 27.9543 41.83 27.9543H40.2271ZM40.2271 31.0116V29.0325H42.018C42.3511 29.0325 42.61 29.1267 42.7947 29.3152C42.9794 29.5037 43.0717 29.7369 43.0717 30.0148C43.0717 30.3215 42.9679 30.5643 42.7601 30.7432C42.5556 30.9221 42.2967 31.0116 41.9834 31.0116H40.2271Z" fill="white"/>
<path d="M45.3609 32.0993H49.6995V31.0164H46.5532V25.1989H45.3609V32.0993Z" fill="white"/>
<path d="M53.3572 32.2431C54.0696 32.2431 54.6797 32.0929 55.1876 31.7927C55.6989 31.4892 56.0897 31.0675 56.3601 30.5276C56.6339 29.9877 56.7707 29.3615 56.7707 28.6491C56.7707 27.9335 56.6339 27.3074 56.3601 26.7707C56.0897 26.2308 55.6989 25.8107 55.1876 25.5104C54.6797 25.2069 54.0696 25.0552 53.3572 25.0552C52.6481 25.0552 52.038 25.2069 51.5267 25.5104C51.0188 25.8107 50.628 26.2308 50.3543 26.7707C50.0838 27.3074 49.9486 27.9335 49.9486 28.6491C49.9486 29.3615 50.0838 29.9877 50.3543 30.5276C50.628 31.0675 51.0188 31.4892 51.5267 31.7927C52.038 32.0929 52.6481 32.2431 53.3572 32.2431ZM53.3572 31.1553C52.6415 31.1457 52.1039 30.9141 51.7444 30.4605C51.3849 30.0069 51.2068 29.4031 51.2101 28.6491C51.2134 28.1444 51.2942 27.7035 51.4525 27.3266C51.6109 26.9496 51.8483 26.6573 52.1649 26.4496C52.4816 26.2388 52.879 26.1366 53.3572 26.1429C54.0762 26.1525 54.6138 26.3841 54.97 26.8378C55.3295 27.2914 55.5092 27.8952 55.5092 28.6491C55.5092 29.1507 55.4284 29.5916 55.2668 29.9717C55.1085 30.3487 54.8694 30.641 54.5495 30.8486C54.2328 31.0563 53.8354 31.1585 53.3572 31.1553Z" fill="white"/>
<path d="M60.7683 32.2431C61.5862 32.2431 62.2689 32.045 62.8164 31.6489C63.3672 31.2496 63.7531 30.7129 63.974 30.0388L62.7719 29.7177C62.6334 30.165 62.3975 30.5164 62.0644 30.772C61.7313 31.0275 61.2993 31.1553 60.7683 31.1553C60.0526 31.1553 59.5133 30.9269 59.1506 30.4701C58.7911 30.01 58.6113 29.4031 58.6113 28.6491C58.6146 27.8952 58.796 27.2898 59.1555 26.833C59.515 26.373 60.0526 26.1429 60.7683 26.1429C61.2993 26.1429 61.7313 26.2707 62.0644 26.5263C62.3975 26.7819 62.6334 27.1333 62.7719 27.5805L63.974 27.2595C63.7531 26.5822 63.3672 26.0455 62.8164 25.6494C62.2689 25.2532 61.5862 25.0552 60.7683 25.0552C60.0592 25.0552 59.449 25.2069 58.9378 25.5104C58.4299 25.8107 58.0391 26.2308 57.7654 26.7707C57.4949 27.3074 57.3597 27.9335 57.3597 28.6491C57.3597 29.3615 57.4949 29.9877 57.7654 30.5276C58.0391 31.0675 58.4299 31.4892 58.9378 31.7927C59.449 32.0929 60.0592 32.2431 60.7683 32.2431Z" fill="white"/>
<path d="M65.0602 32.0993H66.2525V28.8791L69.2554 32.0993H70.7693L67.4992 28.582L70.5615 25.1989H69.0971L66.2525 28.4V25.1989H65.0602V32.0993Z" fill="white"/>
<path d="M74.228 32.2431C75.046 32.2431 75.7287 32.045 76.2762 31.6489C76.8269 31.2496 77.2128 30.7129 77.4338 30.0388L76.2316 29.7177C76.0931 30.165 75.8573 30.5164 75.5242 30.772C75.1911 31.0275 74.759 31.1553 74.228 31.1553C73.5123 31.1553 72.9731 30.9269 72.6103 30.4701C72.2508 30.01 72.0711 29.4031 72.0711 28.6491C72.0744 27.8952 72.2558 27.2898 72.6153 26.833C72.9748 26.373 73.5123 26.1429 74.228 26.1429C74.759 26.1429 75.1911 26.2707 75.5242 26.5263C75.8573 26.7819 76.0931 27.1333 76.2316 27.5805L77.4338 27.2595C77.2128 26.5822 76.8269 26.0455 76.2762 25.6494C75.7287 25.2532 75.046 25.0552 74.228 25.0552C73.5189 25.0552 72.9088 25.2069 72.3976 25.5104C71.8897 25.8107 71.4989 26.2308 71.2251 26.7707C70.9547 27.3074 70.8194 27.9335 70.8194 28.6491C70.8194 29.3615 70.9547 29.9877 71.2251 30.5276C71.4989 31.0675 71.8897 31.4892 72.3976 31.7927C72.9088 32.0929 73.5189 32.2431 74.228 32.2431Z" fill="white"/>
<path d="M78.52 32.0993H79.7123V29.1858H83.0862V32.0993H84.2735V25.1989H83.0862V28.1029H79.7123V25.1989H78.52V32.0993Z" fill="white"/>
<path d="M85.1658 32.0993H86.3927L86.8775 30.6043H89.6875L90.1773 32.0993H91.4042L89.1582 25.1989H87.4118L85.1658 32.0993ZM87.2288 29.5261L88.2726 26.3155L89.3313 29.5261H87.2288Z" fill="white"/>
<path d="M92.3976 32.0993H93.5898V25.1989H92.3976V32.0993Z" fill="white"/>
<path d="M95.0717 32.0993H96.2788V27.2355L99.5835 32.0993H100.791V25.1989H99.5835V30.0628L96.2788 25.1989H95.0717V32.0993Z" fill="white"/>
<path d="M104.154 32.0993H108.755V31.0164H105.347V29.066H108.162V27.9831H105.347V26.2819H108.755V25.1989H104.154V32.0993Z" fill="white"/>
<path d="M109.349 32.0993H110.818L112.5 29.5931L114.177 32.0993H115.636L113.232 28.6108L115.577 25.1989H114.108L112.5 27.6285L110.877 25.1989H109.418L111.763 28.6108L109.349 32.0993Z" fill="white"/>
<path d="M116.426 32.0993H117.618V29.689H119.369C119.435 29.689 119.523 29.6858 119.631 29.6794C119.744 29.673 119.846 29.6634 119.938 29.6507C120.552 29.558 121.007 29.3104 121.304 28.9079C121.604 28.5022 121.754 28.015 121.754 27.4464C121.754 26.8745 121.605 26.3873 121.309 25.9848C121.015 25.5791 120.558 25.3299 119.938 25.2373C119.846 25.2213 119.745 25.2117 119.636 25.2085C119.528 25.2021 119.439 25.1989 119.369 25.1989H116.426V32.0993ZM117.618 28.6108V26.2819H119.32C119.386 26.2819 119.46 26.2851 119.542 26.2915C119.625 26.2979 119.701 26.3091 119.77 26.325C119.968 26.373 120.123 26.4592 120.235 26.5838C120.35 26.7052 120.431 26.8426 120.477 26.9959C120.527 27.1493 120.552 27.2994 120.552 27.4464C120.552 27.5933 120.527 27.7435 120.477 27.8968C120.431 28.0501 120.35 28.1875 120.235 28.3089C120.123 28.4303 119.968 28.515 119.77 28.5629C119.701 28.582 119.625 28.5948 119.542 28.6012C119.46 28.6076 119.386 28.6108 119.32 28.6108H117.618Z" fill="white"/>
<path d="M122.844 32.0993H127.183V31.0164H124.036V25.1989H122.844V32.0993Z" fill="white"/>
<path d="M130.84 32.2431C131.553 32.2431 132.163 32.0929 132.671 31.7927C133.182 31.4892 133.573 31.0675 133.843 30.5276C134.117 29.9877 134.254 29.3615 134.254 28.6491C134.254 27.9335 134.117 27.3074 133.843 26.7707C133.573 26.2308 133.182 25.8107 132.671 25.5104C132.163 25.2069 131.553 25.0552 130.84 25.0552C130.131 25.0552 129.521 25.2069 129.01 25.5104C128.502 25.8107 128.111 26.2308 127.837 26.7707C127.567 27.3074 127.432 27.9335 127.432 28.6491C127.432 29.3615 127.567 29.9877 127.837 30.5276C128.111 31.0675 128.502 31.4892 129.01 31.7927C129.521 32.0929 130.131 32.2431 130.84 32.2431ZM130.84 31.1553C130.124 31.1457 129.587 30.9141 129.227 30.4605C128.868 30.0069 128.69 29.4031 128.693 28.6491C128.696 28.1444 128.777 27.7035 128.936 27.3266C129.094 26.9496 129.331 26.6573 129.648 26.4496C129.965 26.2388 130.362 26.1366 130.84 26.1429C131.559 26.1525 132.097 26.3841 132.453 26.8378C132.812 27.2914 132.992 27.8952 132.992 28.6491C132.992 29.1507 132.911 29.5916 132.75 29.9717C132.591 30.3487 132.352 30.641 132.032 30.8486C131.716 31.0563 131.318 31.1585 130.84 31.1553Z" fill="white"/>
<path d="M135.238 32.0993H136.431V29.689H138.123L139.33 32.0993H140.68L139.364 29.4829C139.77 29.3072 140.072 29.0405 140.27 28.6827C140.468 28.3249 140.567 27.9128 140.567 27.4464C140.567 26.8745 140.418 26.3873 140.121 25.9848C139.828 25.5791 139.371 25.3299 138.751 25.2373C138.659 25.2213 138.558 25.2117 138.449 25.2085C138.34 25.2021 138.251 25.1989 138.182 25.1989H135.238V32.0993ZM136.431 28.6108V26.2819H138.133C138.198 26.2819 138.273 26.2851 138.355 26.2915C138.438 26.2979 138.513 26.3091 138.583 26.325C138.781 26.373 138.936 26.4592 139.048 26.5838C139.163 26.7052 139.244 26.8426 139.29 26.9959C139.34 27.1493 139.364 27.2994 139.364 27.4464C139.364 27.5933 139.34 27.7435 139.29 27.8968C139.244 28.0501 139.163 28.1875 139.048 28.3089C138.936 28.4303 138.781 28.515 138.583 28.5629C138.513 28.582 138.438 28.5948 138.355 28.6012C138.273 28.6076 138.198 28.6108 138.133 28.6108H136.431Z" fill="white"/>
<path d="M141.77 32.0993H146.371V31.0164H142.962V29.066H145.777V27.9831H142.962V26.2819H146.371V25.1989H141.77V32.0993Z" fill="white"/>
<path d="M147.558 32.0993H148.75V29.689H150.442L151.649 32.0993H153L151.684 29.4829C152.09 29.3072 152.391 29.0405 152.589 28.6827C152.787 28.3249 152.886 27.9128 152.886 27.4464C152.886 26.8745 152.738 26.3873 152.441 25.9848C152.147 25.5791 151.691 25.3299 151.07 25.2373C150.978 25.2213 150.878 25.2117 150.769 25.2085C150.66 25.2021 150.571 25.1989 150.502 25.1989H147.558V32.0993ZM148.75 28.6108V26.2819H150.452C150.518 26.2819 150.592 26.2851 150.675 26.2915C150.757 26.2979 150.833 26.3091 150.902 26.325C151.1 26.373 151.255 26.4592 151.367 26.5838C151.483 26.7052 151.564 26.8426 151.61 26.9959C151.659 27.1493 151.684 27.2994 151.684 27.4464C151.684 27.5933 151.659 27.7435 151.61 27.8968C151.564 28.0501 151.483 28.1875 151.367 28.3089C151.255 28.4303 151.1 28.515 150.902 28.5629C150.833 28.582 150.757 28.5948 150.675 28.6012C150.592 28.6076 150.518 28.6108 150.452 28.6108H148.75Z" fill="white"/>
<path d="M48.6312 17.772C47.7686 17.772 46.9061 17.772 45.9819 17.772C45.9819 13.3976 45.9819 9.08485 45.9819 4.71049C46.598 4.71049 47.2758 4.64888 47.8919 4.71049C48.2615 4.7721 48.508 5.08015 48.6928 5.3266C50.3563 7.42136 52.0198 9.51613 53.6833 11.6109C53.9913 12.0422 54.361 12.4118 54.7307 12.9047C54.7307 10.1322 54.7307 7.42136 54.7307 4.71049C55.6548 4.71049 56.5174 4.71049 57.3799 4.71049C57.3799 9.08485 57.3799 13.3976 57.3799 17.772C56.7638 17.772 56.0861 17.8336 55.47 17.7104C55.0387 17.6487 54.7923 17.3407 54.5458 17.0326C52.7591 14.8146 50.9724 12.5351 49.1857 10.3171C49.0009 10.0706 48.816 9.88579 48.5696 9.57774C48.6312 12.3502 48.6312 15.0611 48.6312 17.772Z" fill="white"/>
<path d="M96.0715 6.31228C95.7634 6.74355 95.517 7.23644 95.1473 7.66771C94.8392 8.09899 94.408 8.1606 93.9151 7.79094C93.1141 7.29805 92.2516 6.99 91.2658 6.99C89.2943 6.99 88.0004 7.97577 87.5692 9.8857C87.2611 11.1179 87.3843 12.3501 87.9388 13.5207C88.9246 15.5539 91.389 15.8619 93.0525 15.1842C93.1757 15.1226 93.2374 14.9994 93.2374 14.8762C93.2374 14.3217 93.2374 13.7672 93.2374 13.1511C92.8061 13.1511 92.3748 13.1511 92.0051 13.1511C91.5123 13.1511 91.3274 12.9662 91.3274 12.4734C91.3274 11.9805 91.3274 11.4876 91.3274 10.9331C92.1284 10.9331 92.8677 10.9331 93.6686 10.9331C94.408 10.9331 95.2089 10.9331 95.8866 10.9331C96.0098 11.1179 95.9482 11.3027 95.9482 11.426C95.9482 12.9662 95.9482 14.5065 95.9482 15.9852C95.9482 16.3548 95.825 16.5397 95.5786 16.7245C94.0383 17.7103 92.3748 17.9567 90.5881 17.8335C89.7255 17.7719 88.863 17.587 88.0621 17.2174C85.228 15.9236 83.8109 13.2743 84.2422 10.1321C84.7351 6.74355 87.1995 4.58718 90.6497 4.52557C92.3748 4.46396 93.9767 4.77201 95.3937 5.81939C95.7018 5.94261 95.9482 6.06584 96.0715 6.31228Z" fill="white"/>
<path d="M82.0245 17.7719C79.1904 17.7719 76.418 17.7719 73.6455 17.7719C73.6455 13.3976 73.6455 9.08481 73.6455 4.71045C76.418 4.71045 79.1904 4.71045 82.0245 4.71045C82.0245 5.44978 82.0245 6.18911 82.0245 7.05166C80.2378 7.05166 78.5128 7.05166 76.726 7.05166C76.726 8.09904 76.726 9.0232 76.726 10.0706C78.0815 10.0706 79.4368 10.0706 80.7923 10.0706C80.7923 10.8715 80.7923 11.5492 80.7923 12.3502C79.4368 12.3502 78.0815 12.3502 76.726 12.3502C76.726 13.3976 76.726 14.3833 76.726 15.4307C78.5128 15.4307 80.2378 15.4307 82.0861 15.4307C82.0245 16.2317 82.0245 16.971 82.0245 17.7719Z" fill="white"/>
<path d="M60.3374 7.05174C60.3374 6.25081 60.3374 5.44987 60.3374 4.64893C63.7876 4.64893 67.2378 4.64893 70.7496 4.64893C70.7496 5.44987 70.7496 6.1892 70.7496 6.99013C69.579 6.99013 68.3468 6.99013 67.1146 6.99013C67.1146 10.5636 67.1146 14.137 67.1146 17.7104C66.0672 17.7104 65.0814 17.7104 64.034 17.7104C64.034 14.137 64.034 10.6252 64.034 7.05174C62.7402 7.05174 61.5696 7.05174 60.3374 7.05174Z" fill="white"/>
<path d="M39.02 4.71045C40.0058 4.71045 40.9916 4.71045 42.0389 4.71045C42.0389 9.08481 42.0389 13.3976 42.0389 17.7719C41.0532 17.7719 40.0674 17.7719 39.02 17.7719C39.02 13.3976 39.02 9.08481 39.02 4.71045Z" fill="white"/>
<path d="M106.361 12.2885C106.977 12.6582 107.347 13.1511 107.655 13.7056C108.456 14.9994 109.256 16.3548 110.057 17.6487C109.996 17.8335 109.811 17.7719 109.749 17.7719C109.01 17.7719 108.271 17.7719 107.531 17.7719C106.915 17.7719 106.422 17.5254 106.114 16.9709C105.56 15.9236 104.944 14.9378 104.389 13.8904C103.835 12.9046 103.712 12.843 102.479 12.9662C102.479 14.5065 102.479 16.1084 102.479 17.7103C101.432 17.7103 100.446 17.7103 99.4604 17.7103C99.4604 13.3975 99.4604 9.02315 99.4604 4.64879C99.5221 4.64879 99.5837 4.58718 99.6453 4.58718C101.37 4.58718 103.095 4.52557 104.82 4.64879C105.375 4.7104 105.868 4.77201 106.361 4.95684C107.839 5.44973 108.764 6.37389 108.948 7.91416C109.133 9.51604 108.579 10.8715 107.223 11.7956C106.915 12.0421 106.669 12.1037 106.361 12.2885ZM104.574 10.6866C105.498 10.4402 105.991 9.70087 105.929 8.7151C105.929 7.79094 105.375 7.23644 104.451 7.05161C103.773 6.92839 103.157 6.99 102.479 6.99C102.479 8.28382 102.479 9.57765 102.479 10.8715C103.219 10.8715 103.896 10.8715 104.574 10.6866Z" fill="white"/>
<path d="M124.289 17.7719C123.55 17.7719 122.749 17.7719 122.01 17.7719C121.455 17.7719 121.147 17.4639 120.962 16.971C120.716 16.2933 120.469 15.5539 120.223 14.8762C118.559 14.8762 116.896 14.8762 115.232 14.8762C114.986 15.4923 114.801 16.17 114.555 16.8478C114.308 17.5871 114 17.7719 113.261 17.8335C112.583 17.8335 111.844 17.8335 111.104 17.8335C111.536 16.7862 111.905 15.862 112.275 14.8762C113.507 11.6725 114.801 8.40709 116.033 5.20333C116.157 4.83367 116.341 4.71045 116.773 4.71045C117.512 4.77206 118.19 4.71045 118.929 4.71045C119.237 4.71045 119.422 4.77206 119.484 5.08011C121.085 9.20803 122.687 13.336 124.289 17.4639C124.289 17.5255 124.351 17.5871 124.289 17.7719ZM117.697 7.48293C117.081 9.26964 116.526 10.9947 115.91 12.7198C117.142 12.7198 118.251 12.7198 119.484 12.7198C118.929 10.9947 118.313 9.26964 117.697 7.48293Z" fill="white"/>
<path d="M32.7769 9.73449L17.0662 0.123221C16.943 0.0616107 16.7581 0 16.6349 0C16.4501 0 16.3268 0.0616107 16.142 0.123221L0.431275 9.73449C0.184832 9.85771 0 10.1658 0 10.4738V25.014C0 25.322 0.184832 25.6301 0.431275 25.8149L16.142 35.611C16.2652 35.7342 16.4501 35.7342 16.6349 35.7342C16.8197 35.7342 17.0046 35.6726 17.1278 35.611L32.8385 25.8149C33.085 25.6301 33.2698 25.322 33.2698 25.014V10.4738C33.2082 10.1658 33.085 9.85771 32.7769 9.73449ZM16.6349 19.1609L15.2179 18.2984L13.4311 19.4074L15.7107 20.8244V33.2082L2.71087 25.0756L16.6349 16.5733L18.0519 17.4358L19.8387 16.3268L17.5591 14.9714V2.58766L30.5589 10.5354L16.6349 19.1609ZM10.2274 17.3742L12.0141 16.2652L2.71087 10.5354L15.7107 2.58766V14.9714L1.84832 23.4121V12.1373L10.2274 17.3742ZM31.3599 23.4121L22.9808 18.2984L21.1941 19.4074L30.4973 25.0756L17.5591 33.1466V20.7628L31.4215 12.1373V23.4121H31.3599Z" fill="url(#paint0_linear)"/>
<defs>
<linearGradient id="paint0_linear" x1="4.82394" y1="29.5647" x2="28.1462" y2="6.24246" gradientUnits="userSpaceOnUse">
<stop stop-color="#0056F5"/>
<stop offset="1" stop-color="#33CCF4"/>
</linearGradient>
</defs>
</svg>
